<?xml version="1.0" standalone="no"?>
<!DOCTYPE svg PUBLIC "-//W3C//DTD SVG 20010904//EN"
 "http://www.w3.org/TR/2001/REC-SVG-20010904/DTD/svg10.dtd">
<svg version="1.0" xmlns="http://www.w3.org/2000/svg"
 width="704.000000pt" height="735.000000pt" viewBox="0 0 704.000000 735.000000"
 preserveAspectRatio="xMidYMid meet">

<g transform="translate(0.000000,735.000000) scale(0.100000,-0.100000)"
fill="#000000" stroke="none">
<path d="M6236 6981 c-5 -7 -15 -10 -24 -6 -11 4 -44 -22 -106 -84 l-91 -90
-683 -3 -683 -3 -406 -407 c-223 -225 -411 -408 -418 -408 -10 0 -83 -41 -145
-82 l-25 -17 4 92 3 92 207 203 c113 112 216 212 229 223 17 14 22 29 22 62 0
62 -35 97 -97 97 -61 0 -95 -36 -92 -97 l3 -44 -212 -219 -212 -218 0 -114 0
-113 -43 -25 c-23 -14 -45 -26 -49 -28 -5 -2 -8 77 -8 175 l1 178 82 85 c46
47 93 93 105 102 45 36 37 109 -14 128 -49 19 -94 -8 -94 -57 0 -10 -47 -65
-105 -123 l-105 -105 0 -146 0 -147 -102 -138 -103 -138 -5 84 -5 85 -50 -74
c-27 -40 -58 -85 -68 -100 -9 -14 -22 -25 -28 -23 -6 1 -8 -6 -4 -18 4 -12 2
-20 -5 -20 -6 0 -8 5 -5 10 12 19 -12 10 -31 -13 -20 -22 -31 -43 -32 -61 0
-5 -11 -14 -24 -20 -13 -6 -23 -18 -23 -26 0 -8 -11 -17 -24 -18 -19 -3 -21
-6 -10 -14 10 -7 7 -8 -13 -5 -20 3 -25 0 -20 -11 3 -10 1 -13 -6 -8 -7 4 -13
-2 -16 -16 -44 -241 -63 -308 -85 -308 -5 0 -12 21 -16 47 l-7 47 -19 -58
c-24 -71 -33 -85 -132 -210 l-78 -99 2 -121 c2 -95 -1 -127 -14 -150 -9 -16
-20 -32 -25 -35 -5 -3 -31 -42 -59 -86 -27 -44 -84 -126 -126 -183 l-76 -103
36 -57 c134 -210 161 -245 215 -273 44 -22 52 -24 42 -6 -4 6 13 -7 38 -29 25
-23 64 -54 86 -69 l41 -27 58 35 c32 20 73 47 92 61 33 25 41 26 171 26 l136
0 93 85 93 85 87 2 c47 1 107 3 133 3 26 0 50 4 54 8 4 4 47 7 96 7 48 0 88 4
88 8 0 9 -212 22 -364 22 -103 0 -96 3 -218 -97 l-77 -64 -86 3 -86 3 200 123
199 122 223 0 222 0 93 70 93 70 147 0 c141 0 147 -1 164 -23 25 -32 93 -61
124 -53 40 10 83 53 90 90 8 40 -11 91 -42 120 -33 29 -104 33 -145 7 -31 -19
-49 -21 -191 -21 l-158 0 88 95 87 95 226 0 c211 0 227 -1 236 -19 6 -10 39
-54 73 -97 35 -44 67 -86 72 -94 7 -12 11 -12 24 -1 9 8 18 12 20 10 15 -17
48 -99 71 -174 38 -131 35 -123 47 -100 11 19 11 19 19 0 13 -35 10 -117 -8
-173 -16 -49 -16 -55 -1 -63 14 -8 15 -14 3 -56 -13 -50 -24 -75 -56 -133 -16
-30 -17 -36 -4 -40 12 -4 8 -17 -21 -65 -20 -33 -49 -72 -65 -87 -16 -15 -26
-33 -24 -41 4 -8 -26 -44 -77 -93 -46 -43 -82 -84 -80 -90 4 -17 -81 -72 -194
-125 l-105 -50 41 -30 c23 -17 40 -32 38 -33 -12 -11 -130 -46 -137 -42 -5 4
-11 0 -13 -6 -3 -9 -21 -5 -61 17 l-57 29 -87 -13 c-120 -17 -125 -21 -65 -60
42 -27 101 -79 66 -58 -13 7 -140 -17 -187 -37 -30 -12 -37 -10 -117 32 -82
43 -87 44 -150 39 -72 -7 -190 -34 -204 -48 -6 -6 -3 -9 7 -9 23 0 86 -30 119
-56 40 -33 21 -43 -112 -58 -20 -3 -85 -26 -145 -51 -61 -26 -119 -48 -130
-49 -11 -2 -30 -8 -42 -14 -13 -7 -24 -8 -27 -3 -3 5 -27 16 -53 25 l-47 16
-53 -52 c-28 -28 -50 -55 -48 -59 3 -4 28 -19 57 -34 29 -15 54 -29 56 -30 2
-2 -19 -25 -45 -51 -59 -60 -151 -187 -227 -317 -64 -108 -67 -109 -108 -35
-14 23 -27 37 -36 33 -7 -2 -10 0 -7 5 3 6 -1 10 -9 10 -9 0 -16 7 -16 15 0 8
-4 15 -10 15 -5 0 -10 -7 -10 -15 0 -10 -10 -15 -32 -14 -27 0 -30 2 -13 9 19
7 19 8 2 15 -15 6 -16 10 -5 17 9 7 7 8 -7 3 -11 -4 -29 -9 -40 -12 -16 -4
-17 -3 -5 6 12 9 12 11 -3 17 -9 3 -14 11 -11 16 4 6 -3 5 -15 -1 -11 -7 -21
-18 -21 -26 0 -8 -4 -15 -9 -15 -4 0 -6 11 -3 25 5 29 4 29 -35 14 -44 -18
-93 -28 -87 -18 3 5 -2 9 -10 9 -9 0 -16 5 -16 12 0 6 -8 4 -19 -6 -19 -17
-20 -17 -32 3 -10 15 -16 17 -26 9 -9 -7 -13 -7 -13 0 0 16 -60 26 -73 12 -9
-9 -5 -10 15 -5 16 4 28 3 28 -2 0 -5 -12 -9 -27 -8 -21 0 -27 5 -25 19 2 11
-1 15 -7 11 -6 -3 -11 -14 -12 -23 -1 -10 -4 -7 -8 8 -6 22 -12 25 -55 24 -27
-1 -51 -6 -56 -14 -5 -9 -9 -9 -15 -1 -4 7 -1 19 7 29 12 16 11 16 -13 0 -17
-11 -30 -13 -42 -6 -14 7 -17 5 -17 -12 0 -11 -5 -20 -11 -20 -6 0 -9 6 -6 14
4 10 0 12 -14 9 -10 -3 -19 -1 -19 5 0 11 -31 9 -50 -3 -6 -4 -19 -1 -28 6 -9
7 -14 9 -10 5 13 -15 -25 -36 -40 -23 -10 8 -16 7 -22 -3 -7 -11 -11 -9 -19
10 -7 18 -10 20 -10 8 -1 -26 -19 -22 -24 5 l-4 22 -2 -22 c0 -13 -5 -23 -11
-23 -5 0 -7 -8 -4 -18 3 -9 -4 -2 -16 16 -39 57 -34 27 6 -35 94 -147 324
-398 484 -526 149 -120 480 -327 480 -300 0 4 -7 44 -15 88 -18 102 -18 297 0
399 7 43 16 80 19 83 3 3 27 -17 53 -45 l47 -50 -3 -129 c-3 -142 13 -264 56
-411 13 -48 28 -100 32 -117 9 -39 137 -151 295 -256 304 -205 626 -314 1056
-359 128 -14 474 -19 485 -8 4 4 0 26 -9 49 -10 23 -21 64 -26 91 -8 41 -6 55
13 94 21 44 23 45 56 39 31 -6 33 -5 21 10 -7 8 -18 14 -24 12 -14 -5 -88 52
-81 62 2 5 -8 19 -23 32 l-27 24 24 -28 c32 -36 18 -34 -30 4 -21 17 -39 28
-39 24 0 -3 -20 9 -44 28 -37 28 -57 35 -113 40 -87 9 -306 67 -403 107 -112
47 -110 47 -111 14 -1 -16 -1 -35 0 -41 1 -7 -1 -13 -5 -13 -11 0 -134 70
-195 111 -55 37 -56 39 -62 95 -6 59 1 154 12 154 4 0 15 -14 25 -31 15 -26
18 -44 12 -100 l-6 -68 43 -29 c47 -33 145 -92 152 -92 3 0 5 23 5 50 0 28 2
50 5 50 3 0 36 -15 73 -34 37 -18 112 -48 167 -66 103 -32 284 -74 292 -67 2
3 -8 7 -22 11 -35 9 -32 33 15 95 22 29 40 61 40 71 0 10 7 26 16 34 8 9 13
16 11 16 -2 0 -43 7 -90 15 -258 45 -486 169 -579 314 l-28 45 23 24 c32 35
138 109 183 129 22 9 93 31 159 48 l119 32 -49 17 c-28 9 -61 23 -75 31 l-25
13 30 12 c53 21 294 74 301 67 13 -13 -16 -86 -43 -107 -14 -11 -24 -23 -21
-26 8 -7 180 22 308 53 118 28 220 65 265 97 l30 21 -49 7 c-26 4 -56 14 -67
24 -19 17 -17 18 38 49 137 75 257 135 262 130 10 -11 -21 -101 -49 -143 -17
-23 -30 -45 -30 -47 0 -10 147 69 220 118 99 66 184 140 233 202 l40 50 -44 5
c-40 5 -44 7 -41 30 2 15 39 61 91 115 48 50 99 105 114 124 15 18 31 30 35
27 4 -4 6 -43 5 -87 -1 -61 -7 -91 -27 -135 -15 -32 -25 -59 -22 -61 5 -5 119
127 165 191 42 58 74 125 107 220 26 76 30 134 13 202 -10 38 -8 57 12 134 13
50 27 90 30 90 14 0 70 -96 84 -144 8 -27 15 -74 15 -105 0 -65 10 -59 38 25
41 119 62 254 62 391 0 138 -10 175 -65 247 -24 32 -26 40 -23 132 l3 99 63
-59 c37 -36 71 -79 86 -110 13 -28 28 -62 35 -76 21 -46 5 233 -19 329 -31
127 -87 238 -145 289 -26 23 -52 42 -56 42 -5 0 -9 7 -9 15 0 8 -11 48 -24 90
-17 53 -20 75 -12 75 34 0 138 -66 190 -119 31 -33 56 -56 56 -51 0 5 -12 42
-26 82 -64 179 -173 336 -266 386 -55 29 -55 29 -144 136 l-57 69 68 -7 c71
-7 173 -42 235 -81 58 -36 173 -96 176 -92 6 6 -167 197 -234 258 -33 31 -86
71 -116 89 -31 17 -56 33 -56 36 0 2 50 4 112 4 l112 0 208 -207 208 -207 0
-149 c0 -138 -2 -151 -22 -180 -17 -24 -22 -46 -23 -90 0 -54 3 -61 32 -87 44
-39 92 -47 140 -24 96 47 110 167 28 232 -25 20 -25 21 -25 182 l0 162 -177
185 -176 184 109 -1 109 -1 207 -212 c113 -116 208 -210 210 -207 2 3 18 24
37 48 l33 43 -20 22 c-27 29 -35 67 -23 100 6 16 7 26 2 23 -4 -3 -17 1 -27 9
-10 7 -29 11 -41 9 -18 -5 -46 19 -153 130 l-132 135 -446 3 -447 3 -87 55
-86 55 551 3 552 2 -185 185 -185 185 -270 0 -270 0 -80 80 -80 80 -57 0 c-54
0 -62 -3 -102 -40 l-43 -40 -184 0 -183 0 49 50 49 50 94 0 94 0 57 50 58 50
100 0 101 0 49 -39 c26 -21 61 -53 77 -70 l30 -31 285 0 286 0 135 -134 c133
-133 136 -135 184 -137 47 -3 49 -2 68 35 11 21 23 59 27 85 l7 48 -47 -5
c-43 -4 -51 -1 -79 26 -35 36 -39 72 -10 119 25 41 55 57 96 50 23 -4 34 -2
34 7 0 19 -23 45 -50 59 -15 8 -31 29 -39 54 -13 37 -13 45 0 69 22 43 103
122 130 127 13 2 -337 5 -779 6 l-803 1 -118 -112 c-232 -222 -345 -323 -362
-324 -14 -1 -16 3 -9 15 5 10 5 23 -1 32 -11 18 -12 32 0 25 5 -4 7 2 4 12 -3
13 14 37 54 77 32 33 62 58 66 57 5 -1 6 2 3 7 -3 5 76 88 177 186 l182 178
833 -2 c504 -1 832 2 832 8 0 5 -7 12 -16 15 -14 5 -15 24 -10 139 2 72 2 151
-1 173 l-5 42 -35 -14 c-61 -26 -120 -2 -164 65 -11 18 -18 21 -23 12z m-472
-267 c9 -8 16 -26 16 -39 0 -51 -61 -73 -95 -35 -17 19 -31 20 -409 21 -215 0
-400 4 -411 8 -38 15 87 21 446 21 343 0 357 1 374 20 22 24 58 26 79 4z
m-1259 -314 c10 -17 -5 -49 -30 -63 -12 -6 -99 -81 -191 -165 -93 -85 -184
-160 -202 -167 -27 -12 -32 -18 -27 -38 5 -20 -5 -34 -65 -90 -66 -59 -78 -66
-139 -78 -61 -12 -71 -18 -133 -77 -37 -36 -65 -69 -62 -74 3 -5 1 -7 -4 -6
-6 2 -60 -44 -122 -101 l-111 -103 27 58 c14 33 34 81 42 108 15 42 28 58 111
123 112 89 132 99 196 107 28 4 65 9 83 12 19 3 57 25 92 55 52 43 60 54 60
84 0 30 3 35 23 35 17 0 76 50 200 166 97 91 177 170 177 175 0 14 38 49 54
49 8 0 18 -5 21 -10z m1034 -150 l47 -40 297 0 c173 0 297 -4 297 -9 0 -5 -28
-34 -62 -65 l-61 -56 -254 0 -253 0 -70 67 c-39 36 -85 84 -101 105 l-31 38
72 0 c69 0 73 -1 119 -40z m-1209 -255 c14 -19 14 -19 -2 -6 -10 7 -18 18 -18
24 0 6 1 8 3 6 1 -2 9 -13 17 -24z m1183 -251 c30 -5 35 -9 26 -20 -9 -12
-106 -14 -545 -14 -470 0 -533 -2 -528 -15 5 -11 -2 -15 -27 -16 -30 -1 -48
-17 -144 -118 -60 -64 -136 -140 -169 -168 l-59 -53 -136 0 -136 0 -150 -150
c-140 -141 -209 -199 -221 -187 -8 8 328 358 353 368 14 5 81 9 151 9 l126 0
185 185 186 185 525 0 c289 0 542 -3 563 -6z m166 -19 c44 -22 56 -82 24 -117
-34 -38 -133 -11 -133 36 0 31 20 66 47 80 35 19 29 19 62 1z m-1119 -34 c0
-5 -11 -8 -25 -8 -14 0 -25 3 -25 8 0 5 11 9 25 9 14 0 25 -4 25 -9z m-1292
-108 c-23 -32 -45 -60 -49 -63 -3 -3 -12 -16 -21 -29 -33 -48 -312 -282 -322
-269 -2 1 14 48 35 103 l37 100 109 73 c112 76 245 154 251 147 2 -2 -16 -30
-40 -62z m1610 -105 c28 -28 0 -81 -37 -71 -34 9 -46 30 -33 58 13 27 49 34
70 13z m-205 -172 c-90 -88 -113 -105 -140 -106 -17 0 -40 -2 -50 -5 -10 -3
-1 3 20 12 21 10 66 46 100 79 75 74 171 147 175 134 2 -5 -45 -57 -105 -114z
m-1335 68 c29 -33 28 -75 -4 -113 -53 -64 -153 -25 -154 60 0 35 24 68 60 82
28 11 75 -3 98 -29z m1802 -106 c93 -47 136 -167 92 -254 -40 -77 -97 -114
-177 -114 -52 0 -92 14 -122 42 l-23 21 -23 -21 c-23 -22 -25 -22 -407 -20
-296 2 -384 6 -388 16 -3 9 76 12 370 12 l375 0 22 23 c18 20 20 28 11 51 -15
39 -12 101 5 144 45 106 164 151 265 100z m-2102 -155 l-93 -137 -67 -27 c-91
-37 -176 -97 -219 -155 -20 -27 -71 -118 -113 -201 -42 -84 -78 -153 -81 -153
-3 0 -3 66 1 148 l7 147 94 137 c112 162 168 217 266 263 64 31 269 111 290
114 5 1 -34 -61 -85 -136z m318 48 c-4 -5 -38 -21 -77 -36 -38 -15 -83 -38
-98 -51 -42 -35 -47 -29 -12 15 27 33 41 42 89 51 31 7 64 16 72 21 20 11 33
11 26 0z m559 -151 c-38 -3 -81 -12 -95 -20 -38 -21 -130 -111 -131 -129 0
-12 -2 -12 -6 -2 -7 16 101 128 142 147 17 7 59 13 95 12 l65 -1 -70 -7z
m-720 -222 c-130 -126 -163 -164 -191 -220 -19 -37 -39 -68 -44 -68 -16 0 -29
35 -19 51 5 7 9 19 8 24 0 6 -6 -1 -13 -14 -8 -14 -20 -25 -27 -27 -57 -9
-225 -56 -237 -66 -14 -11 -14 -10 0 10 22 32 47 48 88 57 19 4 54 18 77 31
36 21 49 38 83 110 41 85 41 85 138 148 72 47 120 70 186 90 49 14 91 28 94
31 3 3 7 3 10 1 2 -3 -67 -73 -153 -158z m799 82 c35 -13 68 -68 60 -100 -14
-60 -80 -93 -132 -67 -26 12 -31 12 -63 -10 -82 -58 -221 -113 -283 -113 -33
0 -7 15 109 64 61 25 127 57 148 71 32 22 37 31 37 63 0 74 58 117 124 92z
m-317 -62 c-3 -7 -5 -2 -5 12 0 14 2 19 5 13 2 -7 2 -19 0 -25z m1720 -5 c14
-20 12 -22 -39 -36 -99 -29 -104 -29 -122 -12 -9 10 -15 20 -12 23 9 8 140 51
150 48 5 -1 16 -12 23 -23z m-2543 1 c12 -32 5 -90 -14 -122 -22 -36 -60 -56
-127 -67 l-42 -7 14 52 c16 61 32 80 100 125 59 39 61 40 69 19z m2213 -61
c74 -86 183 -219 210 -258 18 -27 19 -33 7 -49 -16 -23 -13 -40 33 -164 36
-95 42 -166 8 -84 -10 23 -21 42 -25 42 -4 0 -24 36 -45 81 -32 68 -37 87 -32
124 7 50 0 61 -140 232 l-84 103 -306 2 c-223 2 -307 6 -310 15 -6 18 24 20
333 22 l292 1 59 -67z m-1639 -89 c26 -18 30 -74 6 -98 -16 -17 -61 -21 -80
-8 -14 9 -34 47 -34 64 0 23 39 58 63 58 12 0 33 -7 45 -16z m1638 -111 c140
-180 150 -194 162 -233 17 -55 35 -392 28 -517 l-7 -113 41 0 c22 0 40 -4 40
-10 0 -11 -49 -14 -74 -4 -9 3 -16 14 -16 23 0 14 -2 14 -10 1 -6 -10 -10 45
-10 165 0 162 -11 347 -25 431 -5 31 -117 189 -213 302 l-44 52 -290 0 c-244
0 -292 2 -304 15 -14 13 20 15 304 15 l319 0 99 -127z m433 36 c6 -18 11 -33
11 -35 0 -1 -25 -6 -55 -9 -50 -7 -57 -5 -75 16 -10 13 -19 27 -20 31 0 5 73
22 117 27 6 0 16 -13 22 -30z m70 -175 c7 -26 10 -48 8 -51 -3 -2 -31 -1 -62
4 -57 8 -58 8 -70 51 l-13 42 63 0 63 0 11 -46z m-2535 17 c3 -4 -2 -15 -12
-23 -17 -15 -230 -38 -351 -38 l-54 0 -153 -150 c-85 -82 -161 -150 -170 -150
-23 0 21 52 174 204 l130 129 198 9 c110 5 203 13 208 18 12 12 23 13 30 1z
m2342 -15 c8 -32 -2 -46 -30 -46 -30 0 -49 23 -41 50 10 31 63 28 71 -4z
m-2045 -55 c-31 -24 -169 -97 -156 -83 11 12 166 102 175 102 3 0 -6 -9 -19
-19z m1569 -61 c-20 -13 -50 -13 -50 0 0 6 15 10 33 10 24 0 28 -3 17 -10z
m-1890 -106 c0 -7 -50 -49 -98 -82 -199 -137 -377 -250 -385 -245 -13 8 14 29
168 137 66 47 154 109 195 140 64 47 120 70 120 50z m2588 -36 c20 -17 14 -38
-10 -37 -44 2 -71 15 -79 38 -9 22 -8 23 33 16 24 -4 49 -12 56 -17z m-163
-38 c0 -33 -2 -35 -35 -35 -29 0 -36 4 -38 23 -5 32 16 54 47 50 22 -3 26 -8
26 -38z m106 -47 c-9 -15 -10 -12 -10 17 0 29 1 32 10 18 7 -12 7 -24 0 -35z
m69 -5 c0 -36 -4 -35 -14 5 -4 16 -2 27 4 27 5 0 10 -14 10 -32z m-586 -265
c-43 -4 -47 -11 -56 -80 -1 -7 -10 -13 -20 -13 -23 0 -25 51 -3 73 11 12 12
17 2 20 -6 3 17 5 53 4 44 0 51 -2 24 -4z m-27 -45 c-3 -8 -6 -5 -6 6 -1 11 2
17 5 13 3 -3 4 -12 1 -19z m-77 -189 c0 -5 6 -9 13 -9 6 0 30 -5 51 -11 28 -8
35 -13 26 -19 -8 -5 -22 -4 -33 1 -24 13 -83 1 -68 -14 7 -7 2 -16 -19 -29
-17 -10 -30 -26 -30 -35 1 -14 4 -12 15 7 16 27 21 20 6 -8 -8 -15 -71 -31
-71 -18 0 2 16 38 36 79 29 62 39 74 55 70 10 -3 19 -9 19 -14z m479 -55 c9
-8 -22 -33 -46 -36 -21 -2 -33 -16 -57 -65 -53 -106 -57 -95 -7 20 12 27 21
51 21 53 0 2 -20 4 -45 4 l-45 0 -39 -77 c-183 -364 -511 -650 -956 -834 -81
-33 -91 -35 -103 -21 -15 20 -10 23 58 46 73 25 238 104 325 157 310 189 502
391 635 670 l45 94 105 -3 c58 -2 107 -6 109 -8z m81 -154 c0 -22 -65 -139
-71 -129 -9 15 43 139 59 139 6 0 12 -4 12 -10z m-665 -42 c35 -23 62 -45 59
-50 -3 -4 -15 -13 -27 -19 -18 -9 -20 -9 -9 2 17 18 15 30 -3 23 -9 -4 -15 0
-15 10 0 9 -5 16 -11 16 -5 0 -7 -4 -4 -10 3 -5 -1 -10 -9 -10 -15 0 -21 -13
-16 -35 1 -5 -2 -7 -5 -3 -4 4 -16 3 -27 -3 -13 -7 -23 -7 -32 0 -9 8 -19 4
-36 -14 -26 -28 -29 -29 -49 -16 -11 7 -1 24 50 80 35 38 66 70 67 71 2 0 32
-19 67 -42z m-211 -217 c17 -18 17 -21 3 -21 -9 0 -31 -9 -49 -20 -18 -11 -41
-20 -50 -20 -10 0 -17 -6 -15 -12 1 -7 -6 -13 -15 -13 -10 0 -23 -7 -30 -15
-11 -12 -11 -12 5 -1 9 8 17 9 17 3 0 -22 -31 -20 -57 4 l-28 25 25 17 c13 9
47 36 75 58 46 38 52 41 75 29 14 -7 34 -22 44 -34z m-269 -171 c37 -38 41
-57 4 -24 -15 14 -23 13 -80 -11 -35 -15 -76 -32 -90 -40 -24 -11 -30 -10 -54
9 l-28 22 94 42 c52 22 99 41 104 41 6 1 29 -17 50 -39z m-312 -151 c31 -28
55 -55 51 -60 -3 -5 -24 6 -47 26 -44 38 -49 39 -110 26 -23 -5 -68 -15 -99
-22 -32 -6 -55 -16 -52 -21 9 -15 -10 -9 -51 16 -28 17 -35 26 -25 30 29 10
235 55 255 55 11 0 46 -22 78 -50z m-480 -78 c20 -13 25 -20 15 -24 -7 -3 -2
-6 12 -7 20 -1 18 -4 -15 -14 -22 -7 -46 -11 -53 -8 -7 2 -19 -1 -27 -8 -8 -7
-24 -10 -36 -7 -12 3 -18 3 -15 -1 4 -3 -35 -19 -86 -34 -51 -16 -123 -38
-161 -50 -58 -18 -71 -19 -95 -8 l-27 13 65 29 c102 47 282 118 320 128 55 13
73 11 103 -9z m957 -112 c-43 -38 -280 -156 -395 -198 -110 -40 -253 -80 -260
-73 -17 18 6 32 98 57 139 38 382 134 492 194 50 28 92 50 95 50 3 0 -11 -13
-30 -30z m-786 12 c7 -11 -49 -26 -78 -22 -10 1 -16 -2 -12 -7 4 -7 -237 -85
-339 -108 -26 -6 -28 -5 -18 8 7 8 38 20 68 27 31 7 122 34 203 61 158 53 168
55 176 41z m106 -130 c7 -15 6 -24 -6 -36 -33 -32 -77 -3 -60 41 8 21 53 17
66 -5z m-745 -85 c35 -16 62 -18 250 -14 159 4 220 9 252 21 41 15 43 15 54
-4 6 -12 9 -23 6 -25 -23 -23 -500 -33 -569 -12 l-39 11 -62 -61 c-57 -57 -97
-78 -97 -51 0 13 150 161 158 157 4 -2 25 -12 47 -22z m326 -228 c87 -109 89
-112 55 -96 -15 6 -51 42 -82 80 l-55 68 -98 0 -98 0 -132 -147 -131 -148 -1
-145 c0 -80 -4 -165 -8 -190 -6 -40 -8 -34 -14 55 -4 55 -7 147 -7 205 l1 105
141 153 142 152 106 0 106 0 75 -92z m379 50 l21 -43 -28 33 c-25 29 -33 32
-58 27 -29 -7 -29 -7 -10 8 33 27 53 20 75 -25z m-1980 -8 c0 -5 -4 -10 -10
-10 -5 0 -10 5 -10 10 0 6 5 10 10 10 6 0 10 -4 10 -10z m949 -4 c15 -18 4
-44 -22 -52 -14 -4 -25 -1 -33 11 -27 37 26 76 55 41z m-1224 -6 c3 -5 -1 -10
-10 -10 -9 0 -13 5 -10 10 3 6 8 10 10 10 2 0 7 -4 10 -10z m165 -10 c0 -5 -2
-10 -4 -10 -3 0 -8 5 -11 10 -3 6 -1 10 4 10 6 0 11 -4 11 -10z m1491 -67 c-5
-10 -20 -29 -33 -43 -57 -62 -127 -148 -147 -180 -19 -32 -21 -49 -21 -208 0
-113 -3 -171 -10 -167 -6 4 -10 78 -10 189 l0 183 62 74 c98 119 188 204 159
152z m-463 -310 l-1 -168 -10 132 c-8 118 -5 203 8 203 3 0 4 -75 3 -167z
m473 -639 c43 -45 177 -135 252 -169 37 -17 67 -41 88 -68 55 -71 55 -74 -2
-21 -31 30 -86 66 -129 87 -63 30 -129 72 -240 155 -14 10 -23 8 -57 -17 -27
-19 -45 -26 -54 -20 -9 5 -10 11 -4 17 19 18 98 72 105 72 3 0 22 -16 41 -36z
m618 -283 c14 -26 -8 -54 -39 -49 -25 3 -36 27 -26 54 8 20 53 17 65 -5z"/>
<path d="M5712 6701 c-19 -11 -11 -45 11 -49 9 -2 20 4 23 13 9 21 -16 47 -34
36z"/>
<path d="M3235 5355 c-30 -29 -31 -49 -5 -75 25 -25 52 -26 73 -2 24 26 21 68
-5 86 -30 21 -35 20 -63 -9z m55 -20 c18 -21 5 -45 -25 -45 -40 0 -34 54 6 59
4 1 12 -6 19 -14z"/>
<path d="M4979 5227 c-31 -17 -50 -37 -67 -69 -32 -62 -24 -115 25 -169 65
-72 160 -74 229 -5 62 62 64 146 5 209 -56 62 -119 72 -192 34z m109 -145 c-2
-21 -9 -28 -30 -30 -39 -5 -56 30 -28 58 28 28 63 11 58 -28z"/>
<path d="M3917 4822 c-35 -38 -8 -92 46 -92 27 0 57 32 57 61 0 43 -73 65
-103 31z m71 -24 c16 -16 -3 -48 -29 -48 -22 0 -34 22 -25 45 6 18 37 20 54 3z"/>
<path d="M3354 4636 c-15 -40 21 -80 54 -60 37 24 21 74 -25 74 -13 0 -26 -6
-29 -14z m56 -11 c17 -20 5 -45 -20 -45 -23 0 -35 22 -26 45 7 19 30 19 46 0z"/>
<path d="M2513 6376 c-76 -64 -36 -176 62 -176 40 0 65 18 81 57 28 65 -8 128
-78 139 -27 5 -40 1 -65 -20z"/>
<path d="M6528 6383 c7 -3 16 -2 19 1 4 3 -2 6 -13 5 -11 0 -14 -3 -6 -6z"/>
<path d="M1564 6013 l-71 -4 -148 -367 c-81 -202 -150 -373 -152 -379 -4 -10
19 -13 95 -13 l100 0 20 58 19 57 154 0 154 0 22 -55 22 -55 102 -3 c79 -2
100 0 96 10 -2 7 -62 159 -131 338 -70 179 -135 345 -146 370 -20 50 -17 49
-136 43z m71 -372 c30 -75 34 -95 23 -102 -16 -11 -129 -12 -145 -1 -8 5 1 37
30 109 23 56 45 99 48 95 3 -4 23 -49 44 -101z"/>
<path d="M2107 6014 c-4 -4 -7 -178 -7 -386 l0 -378 90 0 90 0 0 38 c0 20 1
192 3 382 l2 345 -85 3 c-47 1 -89 0 -93 -4z"/>
<path d="M1595 4949 c-27 -3 -75 -17 -105 -29 -64 -28 -223 -124 -318 -194
-99 -73 -348 -328 -420 -430 -161 -229 -280 -525 -339 -846 -14 -76 -17 -154
-18 -395 0 -308 6 -387 46 -565 36 -163 54 -207 106 -261 98 -103 242 -189
316 -189 52 0 60 -7 118 -110 205 -365 533 -707 917 -958 50 -33 104 -70 118
-81 15 -11 85 -51 158 -87 239 -121 292 -157 426 -284 26 -25 51 -53 57 -64
23 -41 329 -74 784 -83 366 -7 414 1 216 35 -397 70 -695 187 -985 390 -132
91 -317 260 -347 316 -16 30 -41 48 -135 97 -457 241 -857 622 -1069 1020
-147 278 -225 559 -238 859 -19 472 112 865 376 1128 96 96 177 151 361 241
80 40 160 86 179 104 75 72 92 175 43 268 -48 92 -134 133 -247 118z m59 -195
c24 -24 20 -61 -9 -80 -23 -15 -27 -15 -50 0 -29 19 -32 51 -8 78 20 22 46 23
67 2z"/>
<path d="M6296 3915 c-63 -22 -90 -80 -62 -134 35 -67 120 -84 168 -33 62 64
37 147 -52 175 -9 3 -33 -1 -54 -8z"/>
<path d="M1514 3806 c-44 -44 -47 -99 -8 -145 63 -75 184 -30 184 69 0 42 -20
75 -60 95 -46 24 -78 19 -116 -19z"/>
<path d="M4013 3791 c-59 -28 -93 -82 -93 -149 0 -134 121 -217 235 -162 87
42 125 137 87 222 -40 92 -140 131 -229 89z"/>
<path d="M3242 3340 c-68 -64 31 -165 101 -103 42 38 5 123 -53 123 -14 0 -36
-9 -48 -20z"/>
<path d="M1862 3274 c-28 -20 -30 -69 -3 -84 29 -15 56 -12 74 8 22 25 21 48
-3 72 -24 24 -38 25 -68 4z"/>
<path d="M2190 2970 c-25 -25 -26 -52 -2 -73 24 -22 55 -21 75 1 23 26 21 58
-5 76 -30 21 -44 20 -68 -4z"/>
<path d="M3318 2733 c7 -3 16 -2 19 1 4 3 -2 6 -13 5 -11 0 -14 -3 -6 -6z"/>
<path d="M5807 2622 c-35 -38 -10 -92 41 -92 52 0 80 60 44 93 -24 22 -65 21
-85 -1z"/>
<path d="M5575 2530 c-10 -11 -14 -20 -9 -20 5 0 15 9 22 20 7 11 11 20 9 20
-2 0 -12 -9 -22 -20z"/>
<path d="M5846 2497 c3 -8 0 -18 -5 -22 -6 -3 -9 -10 -6 -15 3 -4 -7 -7 -21
-5 -22 2 -25 -1 -21 -21 2 -13 0 -21 -4 -18 -5 3 -9 17 -9 32 -1 26 -1 27 -13
5 -10 -18 -15 -20 -29 -9 -10 7 -14 17 -10 21 4 5 1 5 -6 1 -7 -4 -19 -3 -27
4 -8 7 -15 7 -19 1 -4 -6 -14 -8 -24 -5 -14 5 -14 4 -2 -4 10 -8 18 -8 27 0
11 8 12 7 7 -6 -4 -10 -13 -15 -21 -12 -8 4 -17 -3 -23 -17 -8 -20 -9 -19 -9
9 -1 18 -7 34 -15 37 -11 5 -13 0 -6 -24 5 -17 5 -29 -1 -29 -5 0 -9 10 -10
23 0 12 -3 16 -6 9 -4 -10 -9 -10 -23 3 -18 16 -18 16 -13 -7 4 -12 14 -28 22
-35 14 -10 13 -11 -5 -7 -23 6 -40 55 -28 78 4 6 -38 -32 -92 -86 -54 -53
-117 -111 -139 -130 -22 -18 -42 -35 -45 -38 -3 -3 -36 -29 -75 -57 -334 -244
-735 -395 -1190 -448 -170 -19 -230 -30 -317 -57 -92 -28 -102 -42 -58 -79 89
-75 278 -151 445 -179 l110 -18 55 -61 55 -61 82 0 c81 0 81 0 135 -43 72 -59
195 -103 314 -112 269 -21 582 119 930 417 136 116 196 181 177 190 -5 1 -22
27 -40 55 l-32 53 49 62 c102 130 220 287 220 292 0 3 19 34 43 69 23 34 52
80 64 102 25 46 38 112 20 96 -19 -15 -68 -1 -77 23 -7 16 -9 17 -9 4 -1 -9 8
-23 20 -31 12 -9 16 -18 10 -21 -5 -4 -12 -2 -16 3 -3 6 -13 7 -22 4 -10 -4
-14 -2 -10 4 7 11 -34 10 -52 -2 -6 -3 -9 0 -5 8 4 10 -3 13 -25 12 -25 -1
-29 1 -20 12 19 23 -45 16 -66 -7 l-18 -20 -22 20 c-24 22 -46 27 -42 8 1 -6
-7 -13 -18 -15 -11 -1 -14 0 -7 3 20 9 14 23 -8 17 -15 -4 -19 -2 -14 10 3 8
1 18 -5 22 -6 3 -9 0 -5 -8z m-330 -86 c-12 -19 -24 -12 -19 10 4 13 9 17 15
11 6 -6 7 -15 4 -21z m364 14 c0 -1 -12 -2 -26 -2 -17 0 -22 2 -13 7 10 7 39
3 39 -5z m-165 -5 c-3 -5 -12 -10 -18 -10 -7 0 -6 4 3 10 19 12 23 12 15 0z"/>
<path d="M5640 2490 c0 -5 5 -10 10 -10 6 0 10 5 10 10 0 6 -4 10 -10 10 -5 0
-10 -4 -10 -10z"/>
<path d="M5955 2470 c-3 -5 1 -10 9 -10 9 0 16 5 16 10 0 6 -4 10 -9 10 -6 0
-13 -4 -16 -10z"/>
<path d="M1445 2210 c3 -5 13 -10 21 -10 8 0 12 5 9 10 -3 6 -13 10 -21 10 -8
0 -12 -4 -9 -10z"/>
<path d="M2380 2109 c0 -5 5 -7 10 -4 6 3 10 8 10 11 0 2 -4 4 -10 4 -5 0 -10
-5 -10 -11z"/>
<path d="M4078 1033 c7 -3 16 -2 19 1 4 3 -2 6 -13 5 -11 0 -14 -3 -6 -6z"/>
<path d="M4170 987 c0 -2 15 -16 33 -33 l32 -29 -29 33 c-28 30 -36 37 -36 29z"/>
<path d="M4300 870 c0 -5 10 -15 23 -21 22 -12 22 -12 3 10 -21 23 -26 26 -26
11z"/>
</g>
</svg>
